<svg width="512" height="512" viewBox="0 0 512 512" fill="none" xmlns="http://www.w3.org/2000/svg">
<path d="M74.0645 16V67.9415H333.575V16H74.0645Z" fill="#5F9238"/>
<path d="M203.82 192.061H229.771V67.9688H203.82V192.061Z" fill="#5F9238"/>
<path d="M333.591 41.9708H74.0803V16H333.591V41.9708Z" fill="#7AC047"/>
<path d="M100.032 42.0245L74.0808 16.0547V67.9952L100.032 42.0245Z" fill="#9ED871"/>
<path d="M307.639 42.025L333.591 16.0552V67.9957L307.639 42.025Z" fill="#9ED871"/>
<path d="M177.911 67.968H177.884V192.06H203.835V93.9654V67.968V42.0239L177.911 67.968Z" fill="#9ED871"/>
<path d="M203.819 166.09L177.868 192.061H229.77L203.819 166.09Z" fill="#5F9238"/>
<path d="M177.867 371.914V319.973H437.377V371.914H177.867Z" fill="#5F9238"/>
<path d="M307.621 195.853H333.572V319.946H307.621V195.853Z" fill="#5F9238"/>
<path d="M437.392 345.942H177.881V371.913H437.392V345.942Z" fill="#7AC047"/>
<path d="M203.833 345.889L177.881 371.86V319.918L203.833 345.889Z" fill="#9ED871"/>
<path d="M411.441 345.889L437.392 371.86V319.918L411.441 345.889Z" fill="#9ED871"/>
<path d="M281.713 319.946H281.686V195.853H307.637V293.949V319.946V345.889L281.713 319.946Z" fill="#9ED871"/>
<path d="M307.621 221.823L281.671 195.853H333.572L307.621 221.823Z" fill="#5F9238"/>
<path d="M437.393 275.722H385.49V16.0161H437.393V275.722Z" fill="#5F9238"/>
<path d="M261.465 145.869V119.898H385.464V145.869H261.465Z" fill="#5F9238"/>
<path d="M411.442 16V275.706H437.393V16H411.442Z" fill="#7AC047"/>
<path d="M411.389 249.735L437.34 275.706H385.437L411.389 249.735Z" fill="#9ED871"/>
<path d="M411.389 41.9708L437.34 16H385.437L411.389 41.9708Z" fill="#9ED871"/>
<path d="M385.464 171.796V171.823H261.465V145.852H359.486H385.464H411.389L385.464 171.796Z" fill="#9ED871"/>
<path d="M287.416 145.868L261.465 171.839V119.897L287.416 145.868Z" fill="#5F9238"/>
<path d="M74 371.85H125.903V112.144H74V371.85Z" fill="#5F9238"/>
<path d="M249.929 241.997V216.026H125.929V241.997H249.929Z" fill="#5F9238"/>
<path d="M99.9513 112.129V371.834H74V112.129H99.9513Z" fill="#7AC047"/>
<path d="M100.005 345.863L74.0535 371.834H125.956L100.005 345.863Z" fill="#9ED871"/>
<path d="M100.005 138.099L74.0537 112.129H125.956L100.005 138.099Z" fill="#9ED871"/>
<path d="M125.929 267.925V267.951H249.929V241.98H151.907H125.929H100.005L125.929 267.925Z" fill="#9ED871"/>
<path d="M223.977 241.997L249.929 267.968V216.026L223.977 241.997Z" fill="#5F9238"/>
<path d="M74.0645 16V67.9415H333.575V16H74.0645Z" fill="#5F9238"/>
<path d="M203.82 192.061H229.771V67.9688H203.82V192.061Z" fill="#5F9238"/>
<path d="M333.591 41.9708H74.0803V16H333.591V41.9708Z" fill="#7AC047"/>
<path d="M100.032 42.0245L74.0808 16.0547V67.9952L100.032 42.0245Z" fill="#9ED871"/>
<path d="M307.639 42.025L333.591 16.0552V67.9957L307.639 42.025Z" fill="#9ED871"/>
<path d="M177.911 67.968H177.884V192.06H203.835V93.9654V67.968V42.0239L177.911 67.968Z" fill="#9ED871"/>
<path d="M203.819 166.09L177.868 192.061H229.77L203.819 166.09Z" fill="#5F9238"/>
<path d="M177.867 371.914V319.973H437.377V371.914H177.867Z" fill="#5F9238"/>
<path d="M307.622 195.853H333.573V319.946H307.622V195.853Z" fill="#5F9238"/>
<path d="M437.392 345.942H177.881V371.913H437.392V345.942Z" fill="#7AC047"/>
<path d="M203.833 345.889L177.881 371.86V319.918L203.833 345.889Z" fill="#9ED871"/>
<path d="M411.441 345.889L437.392 371.86V319.918L411.441 345.889Z" fill="#9ED871"/>
<path d="M281.713 319.946H281.686V195.853H307.637V293.949V319.946V345.889L281.713 319.946Z" fill="#9ED871"/>
<path d="M307.622 221.823L281.671 195.853H333.572L307.622 221.823Z" fill="#5F9238"/>
<path d="M437.393 275.722H385.49V16.0161H437.393V275.722Z" fill="#5F9238"/>
<path d="M261.465 145.869V119.898H385.464V145.869H261.465Z" fill="#5F9238"/>
<path d="M411.442 16V275.706H437.393V16H411.442Z" fill="#7AC047"/>
<path d="M411.389 249.735L437.34 275.706H385.437L411.389 249.735Z" fill="#9ED871"/>
<path d="M411.389 41.9708L437.34 16H385.437L411.389 41.9708Z" fill="#9ED871"/>
<path d="M385.464 171.796V171.823H261.465V145.852H359.486H385.464H411.389L385.464 171.796Z" fill="#9ED871"/>
<path d="M287.416 145.868L261.465 171.839V119.897L287.416 145.868Z" fill="#5F9238"/>
<path d="M74 371.85H125.903V112.144H74V371.85Z" fill="#5F9238"/>
<path d="M249.929 241.997V216.026H125.929V241.997H249.929Z" fill="#5F9238"/>
<path d="M99.9513 112.129V371.834H74V112.129H99.9513Z" fill="#7AC047"/>
<path d="M100.005 345.863L74.0535 371.834H125.956L100.005 345.863Z" fill="#9ED871"/>
<path d="M100.005 138.099L74.0537 112.129H125.956L100.005 138.099Z" fill="#9ED871"/>
<path d="M125.929 267.925V267.951H249.929V241.98H151.907H125.929H100.005L125.929 267.925Z" fill="#9ED871"/>
<path d="M223.977 241.997L249.929 267.968V216.026L223.977 241.997Z" fill="#5F9238"/>
<path d="M119.676 494.661H98.6433V449.975H119.676V494.661Z" fill="#7AC047"/>
<path d="M189.243 415.729C193.75 415.729 198.156 416.419 202.459 417.798C206.762 419.177 210.608 421.135 213.999 423.67C218.805 427.249 222.446 431.761 224.923 437.203C227.4 442.647 228.64 448.835 228.64 455.771C228.64 460.618 227.885 465.26 226.376 469.696C224.868 474.133 222.697 478.085 219.866 481.552C216.253 486.025 211.921 489.401 206.873 491.674C201.825 493.948 196.172 495.086 189.913 495.086C183.655 495.086 177.945 493.975 172.786 491.758C167.625 489.54 163.182 486.269 159.457 481.943C153.235 474.71 150.125 465.968 150.125 455.714C150.125 449.713 151.233 444.092 153.45 438.853C155.666 433.616 158.805 429.188 162.866 425.571C170.205 419.01 178.997 415.729 189.243 415.729ZM189.298 433.289C183.784 433.289 179.472 435.238 176.362 439.133C173.251 443.03 171.696 448.408 171.696 455.268C171.696 458.958 172.198 462.323 173.204 465.361C174.21 468.401 175.644 470.907 177.508 472.883C180.488 475.978 184.493 477.525 189.522 477.525C194.999 477.525 199.292 475.568 202.403 471.653C205.513 467.739 207.07 462.313 207.07 455.379C207.07 448.593 205.476 443.215 202.291 439.244C199.106 435.275 194.775 433.289 189.298 433.289Z" fill="#7AC047"/>
<path d="M189.072 418.717C193.238 418.717 197.308 419.355 201.284 420.629C205.26 421.904 208.813 423.712 211.946 426.055C216.387 429.362 219.752 433.53 222.041 438.56C224.33 443.59 225.474 449.307 225.474 455.715C225.474 460.194 224.777 464.482 223.383 468.581C221.989 472.682 219.984 476.332 217.367 479.536C214.028 483.67 210.027 486.788 205.363 488.889C200.698 490.989 195.475 492.04 189.692 492.04C183.909 492.04 178.633 491.016 173.866 488.967C169.098 486.917 164.993 483.894 161.551 479.897C155.802 473.215 152.929 465.137 152.929 455.663C152.929 450.117 153.953 444.924 156 440.083C158.048 435.245 160.949 431.153 164.702 427.812C171.482 421.749 179.606 418.717 189.072 418.717ZM189.072 415.034C178.718 415.034 169.694 418.409 162.25 425.065C158.109 428.753 154.865 433.324 152.612 438.647C150.381 443.922 149.249 449.646 149.249 455.663C149.249 466 152.45 474.962 158.763 482.3C162.558 486.707 167.15 490.087 172.414 492.35C177.621 494.588 183.435 495.723 189.692 495.723C195.97 495.723 201.751 494.553 206.873 492.247C212.043 489.918 216.534 486.423 220.223 481.859C223.103 478.329 225.339 474.262 226.866 469.768C228.385 465.305 229.154 460.576 229.154 455.715C229.154 448.809 227.887 442.523 225.389 437.033C222.85 431.454 219.066 426.767 214.143 423.101C210.703 420.529 206.752 418.515 202.407 417.122C198.083 415.737 193.597 415.034 189.072 415.034Z" fill="#9ED871"/>
<path d="M257.028 417.238V475.456H283.181V493.519H236.24V417.238H257.028Z" fill="#7AC047"/>
<path d="M338.337 417.238V435.358H286.981V417.238H338.337Z" fill="#7AC047"/>
<path d="M338.337 446.599V464.718H307.769V475.456H338.337V493.52H286.981V446.599H338.337Z" fill="#7AC047"/>
<path d="M347.502 417.238H401.595C407.891 417.238 412.864 417.686 416.516 418.58C420.055 419.439 423.167 421.526 425.848 424.844C427.561 426.969 428.792 429.495 429.537 432.421C430.281 435.347 430.655 439.101 430.655 443.682V493.519H409.867V444.52C409.867 442.434 409.727 440.87 409.447 439.827C409.168 438.785 408.655 437.909 407.91 437.202C407.202 436.531 406.299 436.057 405.2 435.777C404.101 435.497 402.658 435.358 400.87 435.358H368.29V493.519H347.502V417.238Z" fill="#7AC047"/>
<path d="M399.108 446.599V493.52H379.828V446.599H399.108Z" fill="#7AC047"/>
<path d="M142.164 435.89V417.918H76.1555V435.89H142.164Z" fill="#7AC047"/>
<path d="M76.1558 443.662V453.862H142.164V443.662H76.1558Z" fill="#7AC047"/>
<path d="M119.676 494.661H98.6438V449.975H119.676V494.661Z" fill="#7AC047"/>
<path d="M189.244 415.729C193.751 415.729 198.157 416.419 202.46 417.798C206.762 419.177 210.609 421.135 213.999 423.67C218.806 427.249 222.447 431.761 224.925 437.203C227.402 442.647 228.641 448.835 228.641 455.771C228.641 460.618 227.886 465.26 226.377 469.696C224.869 474.133 222.698 478.085 219.867 481.552C216.253 486.025 211.922 489.401 206.875 491.674C201.826 493.948 196.173 495.086 189.914 495.086C183.656 495.086 177.946 493.975 172.786 491.758C167.626 489.54 163.183 486.269 159.458 481.943C153.236 474.71 150.126 465.968 150.126 455.714C150.126 449.713 151.234 444.092 153.451 438.853C155.666 433.616 158.806 429.188 162.867 425.571C170.206 419.01 178.997 415.729 189.244 415.729ZM189.299 433.289C183.785 433.289 179.472 435.238 176.362 439.133C173.251 443.03 171.696 448.408 171.696 455.268C171.696 458.958 172.199 462.323 173.205 465.361C174.211 468.401 175.645 470.907 177.509 472.883C180.488 475.978 184.494 477.525 189.523 477.525C195 477.525 199.292 475.568 202.403 471.653C205.513 467.739 207.07 462.313 207.07 455.379C207.07 448.593 205.477 443.215 202.292 439.244C199.107 435.275 194.776 433.289 189.299 433.289Z" fill="#7AC047"/>
<path d="M257.029 417.238V475.455H283.181V493.519H236.24V417.238H257.029Z" fill="#7AC047"/>
<path d="M338.337 417.238V435.358H286.982V417.238H338.337ZM338.337 446.598V464.717H307.769V475.455H338.337V493.519H286.982V446.598H338.337Z" fill="#7AC047"/>
<path d="M347.502 417.238H401.596C407.892 417.238 412.865 417.685 416.517 418.58C420.055 419.438 423.167 421.526 425.849 424.844C427.563 426.968 428.792 429.494 429.537 432.42C430.282 435.347 430.655 439.1 430.655 443.682V493.519H409.867V444.52C409.867 442.434 409.727 440.87 409.448 439.826C409.168 438.784 408.656 437.909 407.911 437.201C407.203 436.53 406.299 436.056 405.2 435.776C404.102 435.497 402.658 435.358 400.87 435.358H368.29V493.519H347.502V417.238ZM398.746 446.598V493.519H379.466V446.598H398.746Z" fill="#7AC047"/>
<path d="M142.164 435.89V417.918H76.157V435.89H142.164Z" fill="#7AC047"/>
<path d="M76.1572 443.662V453.862H142.164V443.662H76.1572Z" fill="#7AC047"/>
<path d="M257.004 484.498H246.64V417.313H257.004V484.498Z" fill="#5F9238"/>
<path d="M119.524 494.662H109.16V443.662H119.524V494.662Z" fill="#5F9238"/>
<path d="M297.345 435.358H286.981V417.313H297.345V435.358Z" fill="#5F9238"/>
<path d="M297.345 493.51H286.981V446.599H297.345V493.51Z" fill="#5F9238"/>
<path d="M357.866 493.51H347.502V420.823H357.866V493.51Z" fill="#5F9238"/>
<path d="M389.288 493.51H379.466V446.599H389.288V493.51Z" fill="#5F9238"/>
<path d="M283.197 475.504V484.516H247.95V475.504H283.197Z" fill="#5F9238"/>
<path d="M338.337 484.498V493.51H296.407V484.498H338.337Z" fill="#5F9238"/>
<path d="M338.337 417.313V426.325H296.407V417.313H338.337Z" fill="#5F9238"/>
<path d="M406.39 417.313V426.325H347.502V417.313H406.39Z" fill="#5F9238"/>
<path d="M419.845 434.332L430.655 440.121V493.519H419.845V434.332Z" fill="#5F9238"/>
<path d="M338.337 446.599V455.612H296.407V446.599H338.337Z" fill="#5F9238"/>
<path d="M274.289 484.498L283.197 475.486V493.51L274.289 484.498Z" fill="#9ED871"/>
<path d="M329.428 484.498L338.337 475.486V493.51L329.428 484.498Z" fill="#9ED871"/>
<path d="M329.428 455.612L338.337 446.599V464.624L329.428 455.612Z" fill="#9ED871"/>
<path d="M329.428 426.346L338.337 417.334V435.358L329.428 426.346Z" fill="#9ED871"/>
<path d="M142.164 417.882V426.894H76.1555V417.882H142.164Z" fill="#5F9238"/>
<path d="M142.164 443.662V453.862H76.1555V443.662H142.164Z" fill="#5F9238"/>
<path d="M133.255 426.915L142.164 417.903V435.927L133.255 426.915Z" fill="#9ED871"/>
<path d="M85.064 426.915L76.1555 435.927V417.903L85.064 426.915Z" fill="#9ED871"/>
<path d="M246.64 426.153L236.24 417.238H257.039L246.64 426.153Z" fill="#9ED871"/>
<path d="M109.044 485.747L119.443 494.662H98.6433L109.044 485.747Z" fill="#9ED871"/>
<path d="M389.288 484.547L379.466 493.462H399.108L389.288 484.547Z" fill="#9ED871"/>
<path d="M419.845 484.547L410.024 493.462H429.665L419.845 484.547Z" fill="#9ED871"/>
<path d="M429.537 432.421C428.792 429.495 427.562 426.969 425.849 424.844C423.167 421.526 420.055 419.439 416.517 418.58C412.865 417.686 407.892 417.238 401.595 417.238H401.233L401.643 426.346C401.643 426.346 407.847 426.857 409.884 427.222C421.372 429.285 419.845 444.277 419.845 444.277H430.655V443.682C430.655 439.101 430.282 435.347 429.537 432.421Z" fill="#5F9238"/>
<path d="M189.073 426.275C192.433 426.275 195.768 426.798 198.979 427.827C202.138 428.839 204.98 430.281 207.427 432.11L207.432 432.114L207.437 432.119C210.87 434.675 213.399 437.807 215.167 441.692C216.996 445.709 217.922 450.427 217.922 455.715C217.922 459.342 217.354 462.852 216.233 466.147C215.137 469.369 213.552 472.265 211.52 474.753L211.507 474.769L211.494 474.784C208.885 478.014 205.866 480.374 202.264 481.996C198.601 483.646 194.371 484.482 189.693 484.482C184.968 484.482 180.646 483.654 176.847 482.021C173.113 480.416 169.981 478.108 167.276 474.966C162.704 469.652 160.481 463.338 160.481 455.663C160.481 451.161 161.315 446.911 162.957 443.031C164.577 439.201 166.79 436.07 169.722 433.457L169.728 433.453L169.733 433.449C175.132 428.622 181.458 426.275 189.073 426.275ZM189.073 418.717C179.606 418.717 171.483 421.749 164.702 427.812C160.949 431.153 158.049 435.245 156.001 440.083C153.953 444.924 152.929 450.117 152.929 455.663C152.929 465.137 155.803 473.215 161.552 479.898C164.993 483.894 169.099 486.918 173.866 488.967C178.634 491.016 183.909 492.041 189.693 492.041C195.475 492.041 200.698 490.989 205.363 488.889C210.027 486.788 214.029 483.67 217.368 479.536C219.984 476.333 221.989 472.682 223.383 468.581C224.777 464.482 225.475 460.194 225.475 455.715C225.475 449.308 224.33 443.59 222.042 438.56C219.752 433.531 216.387 429.362 211.946 426.055C208.814 423.712 205.26 421.904 201.285 420.629C197.309 419.355 193.238 418.717 189.073 418.717Z" fill="#5F9238"/>
</svg>
