<svg width="50" height="50" viewBox="0 0 50 50" fill="none" xmlns="http://www.w3.org/2000/svg">
<path d="M42.7167 32.8C41.4422 32.2547 40.3567 31.346 39.5956 30.1874C38.8346 29.0287 38.4318 27.6716 38.4375 26.2854C38.4535 25.0477 38.7846 23.8346 39.3996 22.7604C40.0145 21.6862 40.893 20.7864 41.9521 20.1458C42.1917 19.9978 42.3988 19.8027 42.5609 19.5723C42.723 19.3419 42.8367 19.0811 42.8951 18.8055C42.9535 18.53 42.9555 18.2455 42.9008 17.9691C42.8462 17.6928 42.736 17.4304 42.5771 17.1979C41.6249 15.8138 40.3838 14.6527 38.9393 13.7949C37.4948 12.9371 35.8814 12.4028 34.2104 12.2291C35.7661 9.76047 36.4721 6.85087 36.2208 3.94373C36.172 3.4158 35.9206 2.92731 35.5193 2.58081C35.1181 2.23431 34.5982 2.05674 34.0688 2.0854C30.491 2.40386 27.1743 4.09132 24.8104 6.79581C23.3115 8.53226 22.2537 10.6048 21.7271 12.8375C20.6393 12.4689 19.5005 12.2735 18.3521 12.2583C16.2262 12.3188 14.152 12.9275 12.3306 14.0255C10.5092 15.1234 9.00242 16.6734 7.95625 18.525C4.02083 25.3521 6.42917 35.5833 10.6875 41.7437C12.3958 44.2104 14.9604 47.9146 18.8292 47.9146C18.9062 47.9146 18.9833 47.9146 19.0583 47.9104C20.3548 47.8376 21.6241 47.5098 22.7938 46.9458C23.728 46.4719 24.7588 46.2196 25.8062 46.2083C26.7905 46.2205 27.7584 46.4616 28.6333 46.9125C29.9123 47.5176 31.3061 47.8415 32.7208 47.8625C36.7063 47.7875 39.0604 44.3479 40.7792 41.8354C42.1358 39.8399 43.1974 37.6591 43.9312 35.3604C44.088 34.8585 44.0499 34.316 43.8243 33.8411C43.5988 33.3661 43.2026 32.9936 42.7146 32.7979L42.7167 32.8ZM27.9667 9.51664C29.0607 8.29297 30.4314 7.34866 31.9646 6.76248C31.6284 8.41206 30.8858 9.95165 29.8042 11.2416C29.0702 12.1233 28.1769 12.859 27.1708 13.4104L27.1646 13.4125L26.9875 13.4833C26.6 13.6354 26.1187 13.825 25.7479 13.9479C26.1055 12.309 26.8696 10.7856 27.9667 9.51664ZM37.3417 39.4854C35.6687 41.9291 34.3521 43.6646 32.6458 43.6958C31.8226 43.6927 31.0133 43.4836 30.2917 43.0875C28.8946 42.4068 27.3623 42.0494 25.8083 42.0416C24.2004 42.0498 22.6143 42.4148 21.1646 43.1104C20.4597 43.4697 19.6909 43.6864 18.9021 43.7479H18.8396C17.1458 43.7479 15.325 41.1187 14.1146 39.3708C11.0896 34.9958 8.29792 26.2812 11.5667 20.6041C12.2521 19.3759 13.2434 18.3457 14.4443 17.6134C15.6452 16.8812 17.0151 16.4718 18.4208 16.425H18.4917C19.6782 16.5253 20.837 16.8387 21.9125 17.35C22.1833 17.4562 22.4542 17.5646 22.7229 17.6625C22.7906 17.6932 22.8602 17.7196 22.9312 17.7416C23.6732 18.0398 24.4613 18.2069 25.2604 18.2354C26.391 18.1461 27.4955 17.8495 28.5188 17.3604C29.9604 16.66 31.5452 16.3047 33.1479 16.3229C34.8623 16.3905 36.5079 17.0151 37.8354 18.1021C36.701 19.1477 35.7978 20.4191 35.184 21.8345C34.5701 23.2499 34.259 24.778 34.2708 26.3208V26.3229C34.2587 28.1907 34.7206 30.031 35.6132 31.6717C36.5059 33.3124 37.8002 34.6998 39.375 35.7041C38.8273 37.0299 38.1447 38.2968 37.3417 39.4854Z" fill="black"/>
</svg>
