<svg width="30" height="30" viewBox="0 0 30 30" fill="none" xmlns="http://www.w3.org/2000/svg">
<path d="M20.775 14.7625C20.6456 14.6601 20.4972 14.5843 20.3383 14.5395C20.1795 14.4947 20.0133 14.4818 19.8495 14.5015C19.6856 14.5213 19.5273 14.5733 19.3836 14.6546C19.24 14.7358 19.1138 14.8447 19.0125 14.975L10.2625 26.225L5.97499 21C5.87442 20.8661 5.74799 20.7538 5.60318 20.6698C5.45838 20.5857 5.29816 20.5316 5.13204 20.5106C4.96592 20.4897 4.79728 20.5023 4.63613 20.5478C4.47499 20.5932 4.32462 20.6706 4.19396 20.7753C4.06329 20.88 3.95499 21.0099 3.87549 21.1573C3.79598 21.3046 3.74689 21.4665 3.73114 21.6332C3.71538 21.7998 3.73327 21.968 3.78375 22.1277C3.83423 22.2873 3.91626 22.4352 4.02499 22.5625L9.23749 29.0375C9.35514 29.1825 9.50379 29.2994 9.67251 29.3794C9.84124 29.4594 10.0257 29.5006 10.2125 29.5C10.4107 29.5089 10.6082 29.4704 10.7886 29.3878C10.969 29.3052 11.1272 29.1808 11.25 29.025L21.0375 16.525C21.1373 16.3925 21.2097 16.2415 21.2506 16.0808C21.2914 15.9201 21.2999 15.7528 21.2754 15.5888C21.251 15.4247 21.1942 15.2672 21.1083 15.1253C21.0223 14.9835 20.9091 14.8602 20.775 14.7625ZM27.025 14.7625C26.8956 14.6601 26.7472 14.5843 26.5883 14.5395C26.4295 14.4947 26.2633 14.4818 26.0995 14.5015C25.9356 14.5213 25.7773 14.5733 25.6336 14.6546C25.49 14.7358 25.3638 14.8447 25.2625 14.975L16.5125 26.225L15.75 25.2875L14.175 27.3125L15.55 29.025C15.6676 29.17 15.8163 29.2869 15.985 29.3669C16.1537 29.4469 16.3382 29.4881 16.525 29.4875C16.7127 29.4866 16.8979 29.4435 17.0667 29.3613C17.2355 29.279 17.3836 29.1598 17.5 29.0125L27.2875 16.5125C27.3853 16.3804 27.4562 16.2304 27.4959 16.0709C27.5357 15.9114 27.5436 15.7456 27.5192 15.5831C27.4948 15.4205 27.4386 15.2644 27.3538 15.1236C27.269 14.9828 27.1573 14.8601 27.025 14.7625Z" fill="#7CC248"/>
<path d="M10.8873 23.325L12.4998 21.3L12.2498 21C12.1511 20.8633 12.0258 20.7479 11.8813 20.6609C11.7369 20.5739 11.5764 20.517 11.4094 20.4936C11.2424 20.4703 11.0724 20.4809 10.9096 20.525C10.7469 20.569 10.5947 20.6456 10.4623 20.75C10.3339 20.8531 10.2271 20.9807 10.1481 21.1252C10.0692 21.2697 10.0196 21.4285 10.0021 21.5923C9.98471 21.756 9.99982 21.9217 10.0466 22.0796C10.0934 22.2375 10.1709 22.3846 10.2748 22.5125L10.8873 23.325Z" fill="#7CC248"/>
</svg>
