<svg width="50" height="50" viewBox="0 0 50 50" fill="none" xmlns="http://www.w3.org/2000/svg">
<path fill-rule="evenodd" clip-rule="evenodd" d="M4.16667 25C4.16667 13.4938 13.4938 4.16667 25 4.16667C36.5063 4.16667 45.8333 13.4938 45.8333 25C45.8333 36.5063 36.5063 45.8333 25 45.8333C13.4938 45.8333 4.16667 36.5063 4.16667 25ZM8.33334 25C8.33334 29.4203 10.0893 33.6595 13.2149 36.7851C16.3405 39.9107 20.5797 41.6667 25 41.6667C29.4203 41.6667 33.6595 39.9107 36.7851 36.7851C39.9107 33.6595 41.6667 29.4203 41.6667 25C41.6667 20.5797 39.9107 16.3405 36.7851 13.2149C33.6595 10.0893 29.4203 8.33334 25 8.33334C20.5797 8.33334 16.3405 10.0893 13.2149 13.2149C10.0893 16.3405 8.33334 20.5797 8.33334 25ZM17.1917 21.7667C17.6979 20.7083 18.5313 17.7083 19.1333 17.7083C19.7333 17.7083 19.5146 19.2146 20.0521 19.3458C20.5042 19.4563 20.1563 18.6729 21.4125 18.5333C22.6688 18.3938 24.0375 19.1625 24.0375 19.1625C24.0375 19.1625 25.5208 19.5313 26.8896 19.1625C26.8896 19.1625 26.1667 18.0667 27.0521 17.7083C27.9354 17.35 29.1396 18.675 29.1833 19.5313C29.2271 20.3875 27.2167 20.9625 27.2167 20.9625L29.1833 22.1438C29.1833 22.1438 29.7604 20.3146 30.9896 20.2958C32.0833 20.275 33.4542 22.275 32.8125 23.1771C32.1708 24.0792 31.7583 23.4583 31.7583 23.4583C31.7583 23.4583 29.8 25.4417 29.1833 25.7979C28.5688 26.1521 27.7083 25.7979 27.7083 25.7979C27.7083 25.7979 27.3438 26.4729 27.7083 26.7833C28.4479 27.5458 30.3688 28.3042 30.3688 28.3042C30.3688 28.3042 36.275 29.2646 36.4583 30.4688C36.6417 31.6729 31.7583 37.7604 30.9896 37.7604H29.1667C28.4229 36.4479 30.3688 32.2521 30.3688 32.2521C30.3688 32.2521 29.3688 31.1438 29.1667 30.4688C28.9667 29.7938 29.5542 28.6063 29.5542 28.6063L26.8896 27.3792C26.8896 27.3792 25.4729 27.3792 24.7708 26.8229C24.0688 26.2667 23.6979 23.1771 23.6979 23.1771L21.1563 21.3146C21.1563 21.3146 18.9479 24.1188 18.2292 23.7604C17.5083 23.4021 16.6875 22.8229 17.1917 21.7667ZM30.8792 17.3958C29.1208 17.3958 24.8896 15.1583 25.6 13.9583C25.6 12.2375 30.0479 12.4958 31.0021 12.4958C31.9563 12.4958 34.2938 13.2333 35.5917 14.2667C36.8896 15.2979 35.0438 16.7729 34.4 17.3958C33.7542 18.0208 32.6396 17.3958 30.8792 17.3958Z" fill="#7CC248"/>
</svg>
