<svg width="50" height="50" viewBox="0 0 50 50" fill="none" xmlns="http://www.w3.org/2000/svg">
<path d="M43.6914 22.3047L10.918 3.53512C10.4389 3.26016 9.89545 3.11711 9.34307 3.12054C8.79069 3.12397 8.24908 3.27376 7.77344 3.55465C7.30113 3.82268 6.90904 4.21208 6.63775 4.68253C6.36647 5.15298 6.22586 5.68739 6.23047 6.23043V43.7695C6.23563 44.5949 6.56714 45.3848 7.15264 45.9666C7.73813 46.5484 8.53004 46.875 9.35547 46.875C9.90302 46.8757 10.4414 46.7344 10.918 46.4648L43.6914 27.6953C44.1767 27.432 44.5818 27.0426 44.8642 26.5682C45.1465 26.0939 45.2956 25.552 45.2956 25C45.2956 24.4479 45.1465 23.9061 44.8642 23.4317C44.5818 22.9573 44.1767 22.5679 43.6914 22.3047ZM9.35547 41.582V8.41793L25.9375 25L9.35547 41.582ZM28.1445 27.207L31.8164 30.8984L14.5898 40.7422L28.1445 27.207ZM14.5898 9.23824L31.8164 19.1015L28.1445 22.7929L14.5898 9.23824ZM34.6289 29.2773L30.3516 25L34.6289 20.7226L42.1094 25L34.6289 29.2773Z" fill="black"/>
</svg>
