<svg width="50" height="50" viewBox="0 0 50 50" fill="none" xmlns="http://www.w3.org/2000/svg">
<path fill-rule="evenodd" clip-rule="evenodd" d="M14.5833 20.8333V14.5833C14.5833 11.8207 15.6808 9.17115 17.6343 7.21764C19.5878 5.26414 22.2373 4.16667 25 4.16667C27.7627 4.16667 30.4122 5.26414 32.3657 7.21764C34.3192 9.17115 35.4166 11.8207 35.4166 14.5833C35.4166 15.7292 34.4791 16.6667 33.3333 16.6667C32.1875 16.6667 31.25 15.7292 31.25 14.5833C31.25 12.9257 30.5915 11.336 29.4194 10.1639C28.2473 8.99182 26.6576 8.33334 25 8.33334C23.3424 8.33334 21.7527 8.99182 20.5806 10.1639C19.4085 11.336 18.75 12.9257 18.75 14.5833V20.8333H37.5C38.605 20.8333 39.6649 21.2723 40.4463 22.0537C41.2277 22.8351 41.6666 23.8949 41.6666 25V41.6667C41.6666 42.7717 41.2277 43.8315 40.4463 44.6129C39.6649 45.3943 38.605 45.8333 37.5 45.8333H12.5C11.3949 45.8333 10.3351 45.3943 9.5537 44.6129C8.7723 43.8315 8.33331 42.7717 8.33331 41.6667V25C8.33331 23.8949 8.7723 22.8351 9.5537 22.0537C10.3351 21.2723 11.3949 20.8333 12.5 20.8333H14.5833ZM12.5 25V41.6667H37.5V25H12.5ZM29.1666 29.1667H33.3333V37.5H29.1666V29.1667Z" fill="#7CC248"/>
</svg>
