<svg width="50" height="50" viewBox="0 0 50 50" fill="none" xmlns="http://www.w3.org/2000/svg">
<path d="M8.33334 8.33333H41.6667C42.7717 8.33333 43.8316 8.77231 44.613 9.55372C45.3944 10.3351 45.8333 11.3949 45.8333 12.5V37.5C45.8333 38.6051 45.3944 39.6649 44.613 40.4463C43.8316 41.2277 42.7717 41.6667 41.6667 41.6667H8.33334C7.22827 41.6667 6.16846 41.2277 5.38706 40.4463C4.60566 39.6649 4.16667 38.6051 4.16667 37.5V12.5C4.16667 11.3949 4.60566 10.3351 5.38706 9.55372C6.16846 8.77231 7.22827 8.33333 8.33334 8.33333ZM8.33334 12.5V37.5H41.6667V12.5H8.33334ZM25 29.1667H37.5V33.3333H25V29.1667ZM22.8854 24.1062L15.5208 31.4729L12.575 28.525L16.9917 24.1083L12.575 19.6875L15.5208 16.7417L22.8854 24.1062Z" fill="#7CC248"/>
</svg>
